<svg width="60" height="60" viewBox="0 0 60 60" fill="none" xmlns="http://www.w3.org/2000/svg">
<path d="M52.3659 48.4762C50.4643 44.8832 46.721 42.6032 42.6144 42.6032C38.301 42.6032 34.4449 45.0921 32.6407 48.9179C31.7943 48.6217 30.8991 48.468 29.9971 48.468C26.0026 48.468 22.6828 51.4113 22.0921 55.2431H18.3961V46.8832C19.6737 47.5294 21.0923 47.8732 22.5564 47.8732C27.6511 47.8732 31.796 43.7284 31.796 38.6337C31.796 36.9233 31.3395 35.2927 30.4663 33.8569C32.7469 31.6611 34.0798 28.4735 34.0798 25.1101C34.0798 19.7561 30.7473 15.1519 26.1353 13.8506C26.2296 13.3192 26.2772 12.7801 26.2772 12.2373C26.2772 7.14375 22.1333 3 17.0399 3C11.9464 3 7.80258 7.14387 7.80258 12.2373C7.80258 12.7799 7.85016 13.3192 7.94449 13.8506C3.33246 15.1519 0 19.7559 0 25.1101C0 28.4735 1.33313 31.6609 3.61359 33.8569C2.74043 35.2925 2.28387 36.9231 2.28387 38.6337C2.28387 43.7284 6.42867 47.8732 11.5234 47.8732C13.0897 47.8732 14.604 47.4796 15.9491 46.743V55.243H11.0077C10.3321 55.243 9.78422 55.7907 9.78422 56.4664C9.78422 57.1422 10.3321 57.6899 11.0077 57.6899H58.7766C59.4521 57.6899 60 57.1422 60 56.4664C60 52.1782 56.6078 48.6675 52.3659 48.4762ZM31.6247 24.7223C31.6269 24.7823 31.6273 24.8427 31.6284 24.903C31.5893 25.2712 31.2771 25.5589 30.8986 25.5589C30.4937 25.5589 30.1645 25.2296 30.1645 24.8249C30.1645 24.42 30.4938 24.0908 30.8986 24.0908C31.2686 24.0908 31.5745 24.3661 31.6247 24.7223ZM8.20488 44.1093C7.8 44.1093 7.47082 43.78 7.47082 43.3752C7.47082 42.9703 7.80012 42.6411 8.20488 42.6411C8.60977 42.6411 8.93894 42.9704 8.93894 43.3752C8.93894 43.78 8.60965 44.1093 8.20488 44.1093ZM23.0979 23.7551C22.6201 23.2773 21.8456 23.2773 21.3675 23.7551L18.396 26.7266V22.5352C18.396 21.8595 17.8481 21.3117 17.1725 21.3117C16.497 21.3117 15.9491 21.8595 15.9491 22.5352V36.3814L12.3389 32.7712C11.8611 32.2935 11.0866 32.2935 10.6085 32.7712C10.1307 33.249 10.1307 34.0237 10.6085 34.5015L15.949 39.8421V43.7838C14.7163 44.8452 13.1576 45.4262 11.5235 45.4262C11.2373 45.4262 10.9559 45.4064 10.6789 45.3717C11.1207 44.8254 11.3861 44.1307 11.3861 43.3751C11.3861 41.6211 9.95906 40.194 8.205 40.194C7.05176 40.194 6.03996 40.811 5.48215 41.7321C5.00332 40.8022 4.73121 39.7494 4.73121 38.6336C4.73121 37.0852 5.24027 35.6258 6.20355 34.4134C6.40711 34.1572 6.49969 33.83 6.46031 33.5052C6.42105 33.1804 6.25313 32.8848 5.99414 32.6845C3.77309 30.9667 2.44711 28.1351 2.44711 25.1102C2.44711 20.4709 5.52527 16.5534 9.60727 15.9981C9.96844 15.9489 10.2889 15.7411 10.4815 15.4316C10.6739 15.1219 10.7183 14.7427 10.6024 14.3968C10.3684 13.6987 10.2497 12.9722 10.2497 12.2375C10.2497 8.49328 13.2959 5.44711 17.0401 5.44711C20.7844 5.44711 23.8305 8.49328 23.8305 12.2375C23.8305 12.9722 23.7118 13.6987 23.4778 14.3968C23.3619 14.7427 23.4062 15.1219 23.5988 15.4316C23.7911 15.7412 24.1117 15.949 24.473 15.9981C27.4809 16.4073 29.9421 18.6432 31.0298 21.6475C30.9864 21.6457 30.943 21.6442 30.8991 21.6442C29.145 21.6442 27.718 23.0713 27.718 24.8252C27.718 26.5792 29.145 28.0063 30.8991 28.0063C31.0076 28.0063 31.1147 28.0008 31.22 27.9901C30.6669 29.8717 29.5792 31.53 28.0864 32.6849C27.8276 32.8852 27.6598 33.1807 27.6203 33.5055C27.581 33.8304 27.6735 34.1576 27.8769 34.4137C28.8403 35.6262 29.3494 37.0855 29.3494 38.6339C29.3494 42.3793 26.3023 45.4264 22.5567 45.4264C21.0377 45.4264 19.584 44.9241 18.3964 44.0006V30.1841C18.407 30.1744 18.418 30.1656 18.4282 30.1554L23.0982 25.4855C23.5757 25.0076 23.5757 24.2329 23.0979 23.7551ZM24.5812 55.2431C25.1399 52.7686 27.356 50.9149 29.9971 50.9149C30.9445 50.9149 31.8807 51.1589 32.7048 51.6205C33.0234 51.799 33.4051 51.8257 33.7457 51.6936C34.0861 51.5613 34.3499 51.2841 34.4645 50.9373C35.6293 47.4159 38.9046 45.05 42.6145 45.05C46.0238 45.05 49.1114 47.0696 50.4805 50.1952C50.6861 50.6641 51.1602 50.9544 51.6728 50.9257C51.7956 50.9184 51.9032 50.915 52.0016 50.915C54.6427 50.915 56.8587 52.7685 57.4174 55.2431H24.5812Z" fill="#67AA0B"/>
<path d="M8.20498 20.2412C6.4508 20.2412 5.02393 21.6683 5.02393 23.4223C5.02393 25.1762 6.45092 26.6033 8.20498 26.6033C9.95904 26.6033 11.386 25.1762 11.386 23.4223C11.386 21.6683 9.95904 20.2412 8.20498 20.2412ZM8.20498 24.1564C7.8001 24.1564 7.47092 23.8271 7.47092 23.4224C7.47092 23.0175 7.80022 22.6883 8.20498 22.6883C8.60986 22.6883 8.93904 23.0176 8.93904 23.4224C8.93904 23.8271 8.60975 24.1564 8.20498 24.1564Z" fill="#909F44"/>
<path d="M15.215 9.75049C13.4608 9.75049 12.0339 11.1776 12.0339 12.9315C12.0339 14.6855 13.461 16.1126 15.215 16.1126C16.9691 16.1126 18.396 14.6855 18.396 12.9315C18.3962 11.1775 16.9692 9.75049 15.215 9.75049ZM15.215 13.6656C14.8101 13.6656 14.4809 13.3363 14.4809 12.9315C14.4809 12.5267 14.8103 12.1975 15.215 12.1975C15.6199 12.1975 15.9491 12.5268 15.9491 12.9315C15.9492 13.3364 15.6199 13.6656 15.215 13.6656Z" fill="#909F44"/>
<path d="M23.0854 31.2012C21.3312 31.2012 19.9043 32.6282 19.9043 34.3822C19.9043 36.1362 21.3313 37.5633 23.0854 37.5633C24.8394 37.5633 26.2664 36.1362 26.2664 34.3822C26.2664 32.6283 24.8394 31.2012 23.0854 31.2012ZM23.0854 35.1163C22.6805 35.1163 22.3513 34.787 22.3513 34.3822C22.3513 33.9775 22.6806 33.6482 23.0854 33.6482C23.4902 33.6482 23.8194 33.9775 23.8194 34.3822C23.8194 34.787 23.4901 35.1163 23.0854 35.1163Z" fill="#909F44"/>
<path d="M25.9079 20.5995C25.4301 20.1218 24.6556 20.1218 24.1776 20.5995L24.1662 20.6109C23.6884 21.0887 23.6884 21.8634 24.1662 22.3413C24.4053 22.5802 24.7183 22.6997 25.0314 22.6997C25.3445 22.6997 25.6575 22.5802 25.8965 22.3413L25.9078 22.3299C26.3857 21.8522 26.3857 21.0774 25.9079 20.5995Z" fill="#909F44"/>
<path d="M9.53991 29.627L9.52866 29.6157C9.05077 29.1379 8.27628 29.1379 7.79827 29.6157C7.3205 30.0934 7.3205 30.8682 7.79827 31.346L7.80964 31.3574C8.04858 31.5964 8.36171 31.7158 8.67472 31.7158C8.98784 31.7158 9.30085 31.5964 9.53979 31.3574C10.0177 30.8796 10.0177 30.1049 9.53991 29.627Z" fill="#909F44"/>
<path d="M7.73097 54.8979H7.6978C7.02222 54.8979 6.47437 55.4457 6.47437 56.1214C6.47437 56.7971 7.02222 57.3448 7.6978 57.3448H7.73097C8.40655 57.3448 8.9544 56.7971 8.9544 56.1214C8.95452 55.4457 8.40655 54.8979 7.73097 54.8979Z" fill="#909F44"/>
</svg>
