<svg width="60" height="60" viewBox="0 0 60 60" fill="none" xmlns="http://www.w3.org/2000/svg">
<g clip-path="url(#clip0_164_3536)">
<path d="M22.4997 45.9287H16.8748V53.4287H22.4997V45.9287Z" fill="#909F44"/>
<path d="M43.125 45.9287H37.5V53.4287H43.125V45.9287Z" fill="#909F44"/>
<path d="M60 53.4287H0V59.9907H60V53.4287Z" fill="#909F44"/>
<path d="M7.5 8.44678H5.625V10.2859H7.5V8.44678Z" fill="#909F44"/>
<path d="M7.5 11.2593H5.625V13.0984H7.5V11.2593Z" fill="#909F44"/>
<path d="M7.5 20.6343H5.625V22.4734H7.5V20.6343Z" fill="#909F44"/>
<path d="M7.5 23.4468H5.625V25.2859H7.5V23.4468Z" fill="#909F44"/>
<path d="M54.375 8.44678H52.5V10.2859H54.375V8.44678Z" fill="#909F44"/>
<path d="M54.375 11.2593H52.5V13.0984H54.375V11.2593Z" fill="#909F44"/>
<path d="M54.375 20.6343H52.5V22.4734H54.375V20.6343Z" fill="#909F44"/>
<path d="M54.375 23.4468H52.5V25.2859H54.375V23.4468Z" fill="#909F44"/>
<path d="M44.0445 52.5093V45.0093H41.232V27.1609H51.5444V20.6163H49.7052V25.3217H41.232V14.9734H51.5444V8.42883H49.7052V13.1343H41.232V0.00927734H18.7679V13.1343H10.2947V8.42883H8.45553V14.9734H18.7679V25.3217H10.2947V20.6163H8.45553V27.1609H18.7679V45.0092H15.9554V52.5092H0V54.3483H59.9999V52.5092L44.0445 52.5093ZM42.2054 52.5093H38.4195V46.8484H42.2054V52.5093ZM31.8076 20.1476L39.3929 15.6654V24.6299L31.8076 20.1476ZM36.9487 25.3217H23.0512L29.9999 21.2157L36.9487 25.3217ZM36.9487 14.9734L29.9999 19.0794L23.0512 14.9734C23.0511 14.9734 36.9487 14.9734 36.9487 14.9734ZM23.0512 13.1343L29.9998 9.02824L36.9484 13.1343H23.0512ZM31.8076 7.96008L39.3929 3.4779V12.4424L31.8076 7.96008ZM30.0001 6.89192L21.4647 1.84841H38.5353L30.0001 6.89192ZM28.1923 7.96008L20.607 12.4423V3.4779L28.1923 7.96008ZM28.1923 20.1476L20.607 24.6297V15.6653L28.1923 20.1476ZM23.0512 27.1609H36.9486L29.9998 31.2669L23.0512 27.1609ZM28.1923 32.335L20.607 36.8172V27.8527L28.1923 32.335ZM39.3929 27.8529V36.8173L31.8076 32.3352L39.3929 27.8529ZM20.607 38.9537L29.9998 33.4033L39.3926 38.9537V45.0093H36.5804V52.5093H23.4195V45.0093H20.6071L20.607 38.9537ZM17.7947 46.8484H21.5805V52.5093H17.7947V46.8484Z" fill="#67AA0B"/>
<path d="M9.37511 56.2598H3.75V58.0989H9.37511V56.2598Z" fill="#67AA0B"/>
<path d="M32.8127 56.2598H18.7507V58.0989H32.8127V56.2598Z" fill="#67AA0B"/>
<path d="M40.3122 58.1343H34.6873V59.9734H40.3122V58.1343Z" fill="#67AA0B"/>
<path d="M48.7493 56.2598H42.1873V58.0989H48.7493V56.2598Z" fill="#67AA0B"/>
<path d="M52.5006 56.2598H50.6255V58.0989H52.5006V56.2598Z" fill="#67AA0B"/>
</g>
<defs>
<clipPath id="clip0_164_3536">
<rect width="60" height="60" fill="white"/>
</clipPath>
</defs>
</svg>
