<svg width="60" height="60" viewBox="0 0 60 60" fill="none" xmlns="http://www.w3.org/2000/svg">
<g clip-path="url(#clip0_164_3596)">
<path d="M53.4371 46.4233H6.56226V48.2646H53.4371V46.4233Z" fill="#67AA0B"/>
<path d="M40.3126 26.7354H19.688V28.5766H40.3126V26.7354Z" fill="#909F44"/>
<path d="M52.4831 57.673V49.2188H50.6419V57.673H9.35813V49.2188H7.51687V57.673H0V59.5143H60V57.673H52.4831Z" fill="#67AA0B"/>
<path d="M55.3124 43.6106H35.1561C34.113 43.6106 33.2643 42.762 33.2643 41.7188V40.7981H30.9205V38.8437C35.65 38.3797 39.3579 34.3807 39.3579 29.5312H37.5166C37.5166 33.6761 34.1446 37.048 29.9999 37.048C25.8552 37.048 22.483 33.6761 22.483 29.5314H20.6418C20.6418 34.3808 24.3497 38.3796 29.0791 38.8438V40.7982H26.7354V41.7189C26.7354 42.762 25.8867 43.6107 24.8435 43.6107H4.6875V45.452H55.3124V43.6106ZM28.0604 43.6106C28.2373 43.311 28.3739 42.9848 28.4618 42.6394H31.5378C31.6257 42.9848 31.7624 43.311 31.9392 43.6106H28.0604Z" fill="#909F44"/>
<path d="M42.1875 23.9231H30.9207V21.0938H29.0794V23.9231H17.8125V25.7644H42.1875V23.9231Z" fill="#909F44"/>
<path d="M24.3751 7.01459C26.969 7.01459 29.0794 9.1249 29.0794 11.7188V19.219H30.9206V13.5941C30.9206 12.5509 31.7693 11.7021 32.8125 11.7021C33.8556 11.7021 34.7044 12.5508 34.7044 13.5941H36.5456C36.5456 11.5356 34.8709 9.86084 32.8125 9.86084C32.1224 9.86084 31.4758 10.0499 30.9206 10.3776V6.09396C30.9206 4.01693 32.6104 2.32709 34.6875 2.32709C36.7645 2.32709 38.4545 4.01693 38.4545 6.09396H40.2957C40.2957 3.00174 37.7799 0.48584 34.6875 0.48584C31.5953 0.48584 29.0794 3.00162 29.0794 6.09396V7.17455C27.8884 5.94197 26.2203 5.17334 24.3751 5.17334C20.7658 5.17334 17.8296 8.10971 17.8296 11.7188H19.6708C19.6708 9.1249 21.7812 7.01459 24.3751 7.01459Z" fill="#67AA0B"/>
<path d="M38.4211 15.4692H36.5798V17.3441H38.4211V15.4692Z" fill="#67AA0B"/>
<path d="M37.4833 6.09375H35.6421V7.96863H37.4833V6.09375Z" fill="#67AA0B"/>
<path d="M22.4831 12.6567H20.6418V14.5316H22.4831V12.6567Z" fill="#67AA0B"/>
<path d="M27.1708 16.4067H25.3296V18.2816H27.1708V16.4067Z" fill="#67AA0B"/>
<path d="M13.1249 50.1733H11.25V52.0146H13.1249V50.1733Z" fill="#67AA0B"/>
<path d="M16.8749 50.1733H15V52.0146H16.8749V50.1733Z" fill="#67AA0B"/>
<path d="M20.6251 50.1733H18.7502V52.0146H20.6251V50.1733Z" fill="#67AA0B"/>
</g>
<defs>
<clipPath id="clip0_164_3596">
<rect width="60" height="60" fill="white"/>
</clipPath>
</defs>
</svg>
