<svg width="60" height="60" viewBox="0 0 60 60" fill="none" xmlns="http://www.w3.org/2000/svg">
<g clip-path="url(#clip0_164_3581)">
<path d="M59.1162 16.6143C58.1998 13.2292 54.5179 9.79101 52.0698 7.66788C51.5682 7.23351 50.7872 7.26492 50.4298 7.87911C48.7334 10.7919 47.0674 13.7405 45.5325 16.741C45.3743 17.0486 45.4242 17.3314 45.5693 17.5458C45.4025 17.6737 45.2768 17.8676 45.2552 18.1384C45.2216 18.5522 45.1978 18.967 45.1664 19.3808C44.5554 18.8999 43.574 18.8425 42.8049 18.8208C41.544 18.7851 40.3319 19.1458 39.2335 19.7459C39.1999 19.7643 39.1815 19.7925 39.1534 19.8152C39.1274 19.4339 39.1154 19.0494 39.0851 18.6702C39.0678 18.4449 38.9616 18.2532 38.8111 18.108C36.8472 15.088 34.5453 12.2554 32.3973 9.36422C32.0138 8.8486 31.2577 8.61571 30.754 9.15299C28.3384 11.7289 25.8676 14.3536 23.7932 17.2176C23.7206 17.3173 23.6957 17.4148 23.6881 17.5079C23.518 17.6422 23.3935 17.8502 23.3729 18.1438C23.3231 18.862 23.2927 19.5899 23.2548 20.3135C22.6504 19.5379 21.6397 19.5054 20.6962 19.4437C19.5209 19.3667 18.3424 19.4957 17.2007 19.7686C16.5323 19.9279 16.672 20.9873 17.3631 20.9688C18.4128 20.9407 19.4559 20.9558 20.5002 21.0674C21.3722 21.1595 22.2907 21.504 23.0956 21.0761C23.1432 21.0512 23.1822 21.01 23.2191 20.9667C23.1476 22.4637 23.1097 23.9759 23.0848 25.4913C20.9595 25.3657 18.8385 25.4827 16.7089 25.3407C16.763 22.3998 16.7403 19.4599 16.5139 16.5395C16.7955 16.1821 16.8844 15.6524 16.5128 15.2007C14.4883 12.7363 11.3859 10.7713 8.30194 9.96974C8.19037 9.9405 8.08638 9.94808 7.98889 9.97083C7.80799 9.82459 7.55343 9.75635 7.32812 9.79209C6.44854 9.92966 6.04883 10.5634 5.4628 11.1873C4.79228 11.9022 4.1326 12.6258 3.47724 13.3548C2.70815 14.2106 0.725845 15.7054 1.11256 16.9999C1.13422 17.0736 1.18297 17.1353 1.24146 17.1862C-0.38988 21.7618 0.310969 27.5635 0.225394 32.2875C0.115988 38.3936 -0.361716 44.7966 0.534114 50.8464C0.626188 51.4704 1.22196 51.5105 1.64009 51.2418C1.64442 51.2418 1.64767 51.2451 1.652 51.2451C5.5213 51.6729 9.94195 52.3803 13.8047 51.7661C14.2088 51.7022 14.4124 51.3761 14.4503 51.0208C14.7926 51.4303 15.5357 51.4996 15.6462 50.8302C15.9582 48.9356 16.1272 47.0053 16.2258 45.0631C18.767 44.8778 21.2942 44.9114 23.8528 44.9764C23.8593 44.9764 23.8625 44.9743 23.869 44.9743C24.0012 46.4344 24.1366 47.8946 24.2958 49.3299C24.2416 49.357 24.1972 49.4025 24.1788 49.4751C23.7011 51.3426 25.7614 51.6437 27.1371 51.7401C28.9764 51.869 30.8515 51.7953 32.6941 51.7748C34.3297 51.7563 35.7737 51.9037 37.2588 51.2115C37.7018 51.0057 37.7235 50.5561 37.5339 50.2041C38.0246 50.528 38.8251 50.3254 38.8381 49.5498C38.862 48.173 38.8999 46.7854 38.9421 45.3924C40.762 45.3285 42.6186 45.2797 44.4168 45.0143C44.4059 46.8883 44.3951 48.7601 44.3799 50.6298C44.3745 51.2721 44.8836 51.5668 45.3765 51.5332C45.5097 51.7563 45.7318 51.9351 46.0644 51.9697C48.1886 52.194 50.3366 52.312 52.4706 52.4171C54.325 52.5092 56.3897 52.9056 58.1467 52.259C58.5269 52.1192 58.7663 51.6166 58.6006 51.2624C58.8356 51.1703 59.0295 50.9613 59.0523 50.6298C59.8387 39.6545 59.9188 28.5937 60.0001 17.5924C60.0044 16.9858 59.5809 16.6684 59.1162 16.6143ZM14.5013 32.2929C14.3182 38.2095 13.6715 44.3763 14.2467 50.2702C14.1373 50.1326 13.9943 50.0221 13.8047 49.9809C10.1499 49.1858 5.88634 49.5899 2.12971 49.8109C2.72115 44.0589 2.28569 38.0665 2.39727 32.2875C2.48826 27.5462 3.5834 21.7921 2.33661 17.1255C3.38625 16.6424 4.36874 15.218 5.02084 14.5518C5.89718 13.6571 7.34762 12.5792 7.94448 11.3465C10.724 12.7341 12.9317 14.3611 15.0927 16.6208C15.1739 16.7053 15.2595 16.7508 15.3451 16.7995C14.6897 21.9275 14.6616 27.1324 14.5013 32.2929ZM16.4391 34.3315C16.5117 31.6701 16.6233 28.9934 16.6872 26.3167C18.7388 26.9255 20.9551 27.322 23.0685 27.0566C23.0458 30.6876 23.1584 34.3489 23.361 37.9874C22.3102 37.7264 21.1631 37.8661 20.0788 37.9474C18.8363 38.0405 17.595 38.2138 16.3785 38.489C16.3915 37.0949 16.4023 35.7051 16.4391 34.3315ZM16.281 43.7448C16.3308 42.3431 16.346 40.9381 16.3612 39.5365C17.5982 39.4011 18.8298 39.2884 20.0788 39.2992C21.1869 39.309 22.3449 39.5679 23.439 39.4281C23.5213 40.741 23.6155 42.0495 23.7228 43.3516C21.2324 43.0494 18.7291 43.2487 16.281 43.7448ZM37.1581 49.5509C37.1656 49.6711 37.1981 49.7751 37.2404 49.8694C37.1862 49.8314 37.1299 49.7957 37.0692 49.7719C36.1972 49.4274 27.4653 49.5368 25.1992 49.5455C25.9943 39.3133 26.121 28.3575 25.0649 18.1427C25.0508 18.0084 25.0151 17.8903 24.9631 17.7896C27.2476 15.8777 29.3469 13.6982 31.3942 11.522C33.3072 14.1467 35.1801 16.8287 37.2685 19.3061C35.8647 29.0941 36.5179 39.7444 37.1581 49.5509ZM39.7524 20.9786C40.7555 20.5908 41.7878 20.4391 42.8591 20.5875C43.6585 20.6991 44.3063 21.1367 45.0548 20.9461C44.9649 22.2839 44.8912 23.6228 44.8262 24.9627C44.1763 24.8858 43.5112 25.0429 42.8482 25.0418C41.9557 25.0396 41.1021 24.8598 40.2279 24.7016C39.5953 24.5868 39.0895 25.4924 39.7567 25.8185C40.9916 26.4229 43.2675 27.036 44.7591 26.5453C44.5901 30.5359 44.5153 34.5341 44.4709 38.5323C42.9273 38.0394 40.6959 38.4803 39.162 39.0587C39.3765 32.9873 39.552 26.8649 39.2184 20.9071C39.3613 21.0133 39.5433 21.0598 39.7524 20.9786ZM38.9865 44.0232C39.0299 42.7428 39.0754 41.457 39.1219 40.1701C40.0384 40.0131 40.9472 39.8679 41.8809 39.8625C42.7388 39.8582 43.5848 40.1138 44.4308 40.0575C44.4406 40.0564 44.4471 40.0521 44.4568 40.051C44.4471 41.093 44.4384 42.1351 44.4319 43.1761C42.6143 43.2974 40.7825 43.6733 38.9865 44.0232ZM57.6235 50.632C57.6246 50.6699 57.6397 50.6969 57.6462 50.7316C56.1449 50.2572 54.52 50.3893 52.9277 50.3341C50.7211 50.2572 48.4995 50.1987 46.2907 50.2463C46.6818 39.5711 47.2462 28.8157 46.8421 18.1384C46.8356 17.9737 46.7847 17.8459 46.7175 17.7343C46.7836 17.6802 46.8486 17.6249 46.9039 17.5426C48.5319 15.0912 50.068 12.5684 51.5715 10.0358C52.737 11.1342 53.8214 12.3063 54.7898 13.5931C55.8871 15.0512 56.6063 16.8872 57.9051 18.1535C57.5769 28.962 57.2573 39.8257 57.6235 50.632Z" fill="#67AA0B"/>
<path d="M44.5 20L43 19.5L42 19.5L40.5 20L39.5 20.5" stroke="#909F44" stroke-width="1.8" stroke-linecap="round"/>
<path d="M44.5 39.5L43.5 39L42.5 39L41 39L39.5 39.5" stroke="#909F44" stroke-width="1.8" stroke-linecap="round"/>
<path d="M23 39L21 39L20 39L18.5 39L17 39.5" stroke="#909F44" stroke-width="1.8" stroke-linecap="round"/>
<path d="M17.6305 20.2746L20.0004 20.1416L21.7242 20.3991L22.5002 20.4996" stroke="#909F44" stroke-width="1.7" stroke-linecap="round"/>
<path d="M17.0001 26L22.5002 26.5" stroke="#909F44" stroke-width="1.7" stroke-linecap="round"/>
<path d="M40.0001 25.5L44.5 26" stroke="#909F44" stroke-width="1.7" stroke-linecap="round"/>
<path d="M39.5 44.5619L44.5 44.0004" stroke="#909F44" stroke-width="1.7" stroke-linecap="round"/>
<path d="M17 44.1682L23 44.1682" stroke="#909F44" stroke-width="1.7" stroke-linecap="round"/>
</g>
<defs>
<clipPath id="clip0_164_3581">
<rect width="60" height="60" fill="white"/>
</clipPath>
</defs>
</svg>
