<svg width="60" height="60" viewBox="0 0 60 60" fill="none" xmlns="http://www.w3.org/2000/svg">
<path d="M54.4217 49.1327C54.3823 49.091 54.3511 49.0568 54.3251 49.0279C54.24 48.9342 54.1343 48.8172 53.985 48.6864C52.5115 47.3993 50.9072 46.3057 49.216 45.435C46.4616 44.0182 43.6102 43.2996 40.7421 43.2996C40.4421 43.2996 40.1365 43.3073 39.8346 43.3232C37.4208 43.4477 35.171 43.995 33.2871 44.5139C30.4737 45.2896 27.8796 45.8093 25.4252 46.0943C25.452 46.0247 25.4773 45.9536 25.4998 45.8807C25.6362 45.4399 25.7918 44.9967 25.9563 44.527C25.992 44.425 26.0278 44.3233 26.0635 44.2211C26.3874 44.0875 26.7131 43.9469 27.0392 43.7997C27.3321 43.9401 27.6258 44.0775 27.9185 44.2134L28.1538 44.3214C28.2584 44.369 28.3631 44.4164 28.467 44.4665L28.4813 44.4745C28.7023 44.5978 29.2195 44.8872 29.9311 44.8872C30.0546 44.8872 30.1795 44.8786 30.2897 44.8626C30.8806 44.7801 31.4145 44.5024 31.8352 44.0554C32.0876 43.7866 32.3496 43.5211 32.6278 43.24L32.9557 42.9072C33.2407 42.6175 33.5229 42.3262 33.8044 42.0279C33.9188 41.906 34.0163 41.7773 34.1006 41.643C35.0986 41.8661 36.1212 41.9805 37.1492 41.9807C37.1494 41.9807 37.1494 41.9807 37.1499 41.9807C42.904 41.9807 48.0103 38.4993 50.1584 33.1118C51.3933 30.0147 51.4413 26.6868 50.3049 22.9392C49.2654 19.5093 47.6721 16.1001 45.1376 11.8849C43.5167 9.1884 41.5875 6.37238 39.2398 3.27793C39.1449 3.15254 39.0602 3.05926 38.9855 2.97723L38.8899 2.87035C38.4436 2.36598 37.8035 2.0791 37.1339 2.0791C37.0997 2.0791 37.0648 2.0798 37.0306 2.08145C36.3232 2.11262 35.6681 2.46184 35.2481 3.0316C35.0088 3.35645 34.7712 3.67426 34.5368 3.98832C34.0123 4.69191 33.5163 5.35637 33.0216 6.05738C30.7465 9.28215 27.8733 13.5902 25.6854 18.4682C25.6118 18.2632 25.5363 18.0586 25.4656 17.8521C25.0645 16.6856 24.0586 15.9609 22.8403 15.9609C22.8288 15.9609 22.8049 15.9611 22.7935 15.9611C22.358 15.9675 21.9223 15.971 21.4866 15.971C21.0635 15.971 20.6402 15.9677 20.2165 15.9604C20.2036 15.9602 20.1724 15.96 20.1593 15.96C18.9237 15.96 17.9046 16.6882 17.4996 17.8617C17.3426 18.3175 17.1462 18.8782 16.9249 19.4615C16.6285 19.5848 16.3235 19.7074 16.0116 19.8288C15.4526 19.5672 14.9088 19.2996 14.3949 19.0439C13.9491 18.8219 13.5162 18.7139 13.0716 18.7139C12.3206 18.7139 11.6058 19.0324 11.0578 19.6115C10.549 20.1496 9.98955 20.7098 9.29791 21.3738C8.37775 22.2569 8.15931 23.5157 8.7279 24.6593C9.0279 25.2621 9.27353 25.7709 9.48822 26.2347C9.35158 26.5408 9.20861 26.8521 9.05955 27.1666C8.50431 27.3649 7.9172 27.5639 7.28205 27.7696C6.03681 28.1721 5.27978 29.2305 5.3065 30.5325C5.32267 31.3235 5.3229 32.1466 5.30697 33.0473C5.28423 34.3326 6.03611 35.3761 7.26775 35.7686C7.68306 35.9013 8.09603 36.0443 8.53337 36.1952C8.68736 36.2484 8.84134 36.3014 8.9958 36.3541C9.12962 36.6815 9.27658 37.0146 9.43876 37.357C9.3265 37.5918 9.21892 37.8241 9.11322 38.0524C8.97939 38.3414 8.8458 38.6308 8.70634 38.9151C8.15439 40.0373 8.36791 41.2736 9.26533 42.1434C9.92416 42.7811 10.5176 43.3748 11.0777 43.9568C11.782 44.6901 12.5538 44.8441 13.0772 44.8441C13.5115 44.8441 13.9444 44.7377 14.363 44.5277C14.9548 44.2319 15.4718 43.9821 15.946 43.7632C16.2488 43.8932 16.5626 44.0325 16.8907 44.182C17.0745 44.6903 17.2631 45.2371 17.4284 45.7811C17.4724 45.9255 17.5254 46.0624 17.5845 46.1939C16.0737 46.0371 14.6548 45.7694 13.3038 45.3808C11.022 44.7246 8.99275 43.856 7.10064 42.7251C6.72751 42.502 6.31197 42.3932 5.899 42.3932C5.30158 42.3932 4.70955 42.6215 4.25955 43.0614C3.49876 43.8054 3.3347 44.969 3.85994 45.8941C5.449 48.6935 7.41259 50.8659 9.86298 52.5354C11.4731 53.6322 13.028 54.3916 14.6166 54.8575C16.2792 55.345 18.0014 55.5923 19.7358 55.5923C21.5714 55.5923 23.4567 55.3153 25.3397 54.7696C26.8845 54.3215 28.4016 53.7914 29.8835 53.2525C29.2338 53.9538 29.0681 54.9907 29.4938 55.8672C29.891 56.6857 30.7177 57.1875 31.6013 57.1875C31.7527 57.1875 31.906 57.1727 32.0588 57.1427C33.0727 56.9411 34.0742 56.7056 35.0421 56.4773C37.7095 55.8496 40.2291 55.2567 43.2213 55.2567C45.6602 55.2567 48.1481 55.6619 50.8266 56.4953C51.0567 56.5673 51.2911 56.6015 51.5231 56.6015C52.3207 56.6015 53.0845 56.1928 53.5198 55.4854C54.0063 54.6944 53.9738 53.7046 53.4708 52.9539C53.8974 52.8084 54.286 52.54 54.5763 52.1594C55.272 51.2489 55.2066 49.968 54.4217 49.1327Z" fill="#D1D1D1"/>
<path d="M7.64912 33.0878C7.64443 33.347 7.73537 33.4576 7.98006 33.5356C8.79076 33.7946 9.59045 34.0881 10.3997 34.3531C10.6803 34.4443 10.8324 34.5856 10.9407 34.8854C11.187 35.5691 11.4879 36.2368 11.817 36.8853C11.9762 37.1992 12.0188 37.4406 11.8494 37.767C11.4788 38.4821 11.1631 39.2251 10.808 39.9484C10.7042 40.1593 10.7218 40.292 10.8936 40.4586C11.5283 41.0727 12.1543 41.6961 12.7667 42.3329C12.9441 42.5176 13.0822 42.5471 13.3135 42.4313C14.0883 42.0439 14.8695 41.6668 15.6631 41.3195C15.8229 41.2499 16.0681 41.2738 16.2373 41.3434C16.9948 41.6551 17.7427 41.9903 18.4843 42.3376C18.6275 42.4046 18.7838 42.5441 18.8365 42.6863C19.134 43.4837 19.4222 44.2857 19.6697 45.0997C19.7794 45.4599 19.9543 45.5656 20.3192 45.5525C21.1252 45.5237 21.9336 45.5328 22.7403 45.5488C23.0241 45.5544 23.1685 45.4834 23.2601 45.1876C23.5116 44.375 23.8137 43.5781 24.0814 42.7702C24.1653 42.5174 24.3111 42.3934 24.5647 42.2954C25.2861 42.0172 25.9974 41.7083 26.6956 41.375C26.9354 41.2609 27.1076 41.2217 27.3612 41.349C27.5424 41.4397 27.7247 41.529 27.9073 41.6169C28.2394 41.7774 28.5734 41.9335 28.9074 42.0887C29.1106 42.1831 29.3162 42.2734 29.5175 42.3716C29.664 42.4431 29.8187 42.5626 29.9663 42.5413C30.0207 42.534 30.0737 42.507 30.1247 42.4529C30.5033 42.0493 30.8961 41.66 31.2837 41.2646C31.5575 40.9862 31.8289 40.7059 32.0972 40.4218C32.1814 40.3323 32.187 40.0871 32.1296 39.9585C31.7762 39.1674 31.3852 38.3933 31.029 37.6032C30.9645 37.4593 30.9488 37.2507 31.0001 37.1028C31.2687 36.3296 31.5554 35.562 31.8629 34.8029C31.9264 34.6459 32.0799 34.4755 32.2334 34.4136C32.9806 34.1124 33.7376 33.8352 34.4989 33.5729C34.7799 33.4761 34.9097 33.3526 34.899 33.0268C34.8718 32.1896 34.8779 31.351 34.8962 30.5136C34.9025 30.2251 34.8158 30.0798 34.5345 29.9851C33.7862 29.7322 33.0542 29.4303 32.304 29.1817C32.0211 29.0881 31.9137 28.9224 31.8204 28.6585C31.5664 27.9442 31.2605 27.2483 30.9997 26.536C30.9411 26.3762 30.9204 26.1528 30.9863 26.0052C31.3508 25.186 31.7572 24.3854 32.1221 23.5663C32.1758 23.4451 32.1413 23.2077 32.0527 23.113C31.4492 22.4682 30.8115 21.856 30.2051 21.2143C30.0097 21.0078 29.8569 21.009 29.6176 21.129C28.857 21.5108 28.089 21.8799 27.3099 22.2221C27.1487 22.2929 26.9094 22.2788 26.7371 22.2172C26.0082 21.9568 25.2994 21.6399 24.5658 21.395C24.2996 21.306 24.1637 21.1822 24.0765 20.9314C23.8074 20.1561 23.514 19.3895 23.2477 18.6132C23.172 18.3924 23.0677 18.3008 22.8265 18.3041C21.9434 18.317 21.0596 18.3186 20.1762 18.3034C19.921 18.2992 19.7979 18.3819 19.7143 18.6247C19.4422 19.4143 19.16 20.2016 18.848 20.9764C18.7824 21.1395 18.5954 21.2954 18.4269 21.3685C17.7036 21.6833 16.97 21.9765 16.2308 22.2524C16.0704 22.3121 15.8443 22.3285 15.6945 22.2615C14.9037 21.9076 14.1244 21.527 13.3484 21.1412C13.1178 21.0261 12.961 21.0083 12.7594 21.2213C12.1632 21.852 11.5456 22.4633 10.9196 23.0642C10.7321 23.2445 10.7115 23.3863 10.8251 23.6148C11.2112 24.3906 11.5883 25.1717 11.9365 25.9651C12.0054 26.1224 11.9851 26.3652 11.9147 26.5299C11.5939 27.2832 11.2505 28.0278 10.8905 28.7633C10.8155 28.9166 10.6576 29.0767 10.501 29.1348C9.67482 29.442 8.84021 29.7278 8.00139 29.9994C7.74287 30.0828 7.64279 30.2045 7.64842 30.4834C7.66623 31.3513 7.66435 32.2196 7.64912 33.0878ZM21.5529 26.3523C24.511 26.3624 26.9169 28.8085 26.9082 31.7985C26.8997 34.7982 24.4756 37.201 21.4611 37.1963C18.4461 37.1921 16.0529 34.7563 16.0641 31.7031C16.0751 28.7199 18.5143 26.3422 21.5529 26.3523Z" fill="#909F44"/>
<path d="M29.8917 18.9433C30.3756 18.9433 31.0884 19.0863 31.7338 19.7683C32.0076 20.058 32.287 20.3406 32.5835 20.6399C32.913 20.9728 33.2533 21.3168 33.5887 21.6749C34.2583 22.3912 34.4453 23.5202 34.0446 24.4213C33.8519 24.8542 33.6508 25.2759 33.4567 25.6837C33.356 25.8956 33.258 26.1011 33.1631 26.3043C33.2186 26.4461 33.2763 26.59 33.3353 26.7379C33.4223 26.9556 33.5111 27.1776 33.5985 27.4047C33.8041 27.479 34.0052 27.5542 34.2037 27.6283C34.5517 27.7584 34.8813 27.8812 35.208 27.9916C36.3562 28.379 37.0263 29.3395 36.9996 30.5599C36.9782 31.5271 36.9792 32.2666 37.0019 32.9573C37.042 34.1821 36.3623 35.1555 35.1838 35.5612C34.6106 35.759 34.0856 35.9488 33.596 36.1371C33.4553 36.4987 33.3168 36.8685 33.1811 37.2452C33.273 37.4409 33.366 37.6366 33.4596 37.8321C33.655 38.242 33.8568 38.666 34.0504 39.0991C34.0696 39.1417 34.087 39.1858 34.1041 39.231C39.4966 40.6961 45.6274 38.1461 47.9807 32.2431C49.1198 29.3866 48.9356 26.5017 48.0613 23.6184C46.9258 19.8712 45.1359 16.4303 43.1285 13.0919C41.3765 10.1777 39.4246 7.39986 37.3713 4.69236C37.3209 4.6258 37.2609 4.5665 37.1331 4.42236C36.3714 5.45479 35.6343 6.41783 34.9354 7.40783C32.1778 11.3165 29.6158 15.3421 27.6841 19.7341C27.9996 19.5831 28.3277 19.4226 28.6743 19.2487C29.0847 19.0429 29.4827 18.9433 29.8917 18.9433ZM39.4363 32.0845C39.7347 31.6406 40.0488 31.2079 40.3427 30.7614C41.7576 28.6122 42.6035 26.2635 42.5742 23.6779C42.5575 22.1999 42.3403 20.7243 42.2188 19.3204C42.191 19.2841 42.2336 19.3239 42.2582 19.3731C43.286 21.461 44.2422 23.5715 44.7949 25.851C45.4363 28.4969 45.0445 30.9499 43.6054 33.2458C43.0626 34.1116 42.2739 34.6366 41.2769 34.8379C40.4491 35.005 39.6717 34.7024 39.2599 34.0619C38.8092 33.3616 39.0149 32.7093 39.4363 32.0845Z" fill="#67AA0B"/>
<path d="M41.9062 47.8036C44.8696 47.6918 47.6957 48.2229 50.3725 49.5019C51.1333 49.8659 51.8666 50.2882 52.7137 50.7378C52.5749 50.5899 52.5149 50.5144 52.4432 50.4516C51.1276 49.3022 49.6977 48.3188 48.144 47.5191C45.5744 46.197 42.8612 45.5136 39.9555 45.6633C37.8901 45.77 35.8904 46.2272 33.9102 46.7729C30.2577 47.7795 26.5626 48.4946 22.7638 48.6617C19.3382 48.8119 15.9627 48.5848 12.6557 47.6335C10.2854 46.9519 8.02654 46.0093 5.89795 44.7373C7.23154 47.0864 8.94225 49.0723 11.1824 50.5986C12.4574 51.4669 13.7964 52.1747 15.276 52.609C18.4208 53.5311 21.5868 53.4178 24.6866 52.5188C27.2284 51.7814 29.7039 50.81 32.1965 49.91C35.3411 48.7746 38.5412 47.93 41.9062 47.8036Z" fill="#67AA0B"/>
<path d="M44.0623 51.0062C40.0093 50.3924 35.0663 51.8788 31.6016 54.8441C37.3006 53.7113 42.5485 51.4651 51.5232 54.2581C51.5232 54.2581 49.1143 51.7717 44.0623 51.0062Z" fill="#67AA0B"/>
</svg>
