<svg width="60" height="60" viewBox="0 0 60 60" fill="none" xmlns="http://www.w3.org/2000/svg">
<path fill-rule="evenodd" clip-rule="evenodd" d="M55.3987 13.069L52.4737 12.379L44.5687 20.239L40.0912 15.679L47.8012 7.59029L47.1262 4.62029C45.497 4.07522 43.7929 3.78678 42.075 3.76529C40.2009 3.73647 38.3411 4.09389 36.6112 4.81529C34.941 5.57132 33.4312 6.64063 32.1637 7.96529C30.7528 9.30183 29.6354 10.9173 28.8825 12.709C27.4329 16.2748 27.4329 20.2657 28.8825 23.8315C21.0646 31.5228 13.3477 39.3159 5.73372 47.209C4.94622 48.2403 4.57122 49.5265 4.66872 50.8203C4.74556 52.2118 5.37135 53.5159 6.40872 54.4465C6.87372 54.9528 7.42872 55.3728 8.04747 55.6765C8.68497 55.9578 9.37122 56.119 10.065 56.1528C11.25 56.1303 12.3862 55.6803 13.2675 54.889C19.0725 49.4253 30.195 38.2015 36.5137 31.624C38.2275 32.3515 40.0687 32.7265 41.9287 32.7228C43.801 32.7213 45.654 32.3446 47.3783 31.6148C49.1025 30.8851 50.663 29.8171 51.9675 28.474C54.647 25.7413 56.1436 22.0638 56.1337 18.2365C56.1771 16.4852 55.9287 14.7388 55.3987 13.069ZM10.9987 52.2303C10.8544 52.3585 10.6804 52.4487 10.4925 52.4928C10.3076 52.5248 10.1186 52.5248 9.93372 52.4928C9.73988 52.4633 9.55526 52.3902 9.39372 52.279C9.22038 52.1776 9.07381 52.0361 8.96622 51.8665C8.44122 51.3303 7.94997 50.3103 8.44122 49.7365C13.5787 44.2728 24.1575 33.5928 30.7725 27.064C31.1475 27.559 31.56 28.0315 32.0025 28.474C32.445 28.9353 32.9212 29.3628 33.4275 29.7528C27.03 36.3153 16.5975 46.8678 11.0025 52.2303H10.9987ZM52.6912 18.2365C52.6987 21.1053 51.5812 23.8615 49.5712 25.9165C47.5654 27.8841 44.8678 28.9864 42.0581 28.9864C39.2484 28.9864 36.5508 27.8841 34.545 25.9165C33.0749 24.3824 32.0707 22.4624 31.6491 20.3798C31.2276 18.2973 31.406 16.1379 32.1637 14.1528C32.6681 12.8018 33.4504 11.5717 34.46 10.542C35.4696 9.51236 36.6841 8.70607 38.025 8.17529C39.2981 7.64244 40.6649 7.36959 42.045 7.37279H42.9975L36.1837 14.3965V17.0065L43.29 24.079H45.765L52.6912 17.269V18.2365Z" fill="#67AA0B"/>
<path d="M36.8243 37.7104L34.2968 40.2341L46.0305 52.1967C46.1946 52.3593 46.3224 52.5548 46.4055 52.7704C46.4886 52.9911 46.533 53.2246 46.5368 53.4604C46.5335 53.6966 46.4878 53.9304 46.4018 54.1504C46.3187 54.366 46.1909 54.5616 46.0268 54.7242C45.8687 54.8982 45.6723 55.0331 45.453 55.1179C45.0214 55.2932 44.5384 55.2932 44.1068 55.1179C43.8874 55.0332 43.6909 54.8984 43.533 54.7242L31.788 42.7466L29.2418 45.2892L41.0243 57.3004C41.4828 57.8034 42.0408 58.2057 42.663 58.4817C43.6379 58.8907 44.7134 58.9968 45.7494 58.7862C46.7854 58.5755 47.7341 58.0578 48.4718 57.3004C49.4528 56.2693 50 54.9005 50 53.4773C50 52.054 49.4528 50.6852 48.4718 49.6542L36.8243 37.7104Z" fill="#909F44"/>
<path d="M17.2237 25.3112H11.4825V25.3149L9.8925 24.5087L3 13.5662L3.24751 11.3199L6.36375 8.13617L8.58 7.88867L19.305 14.9462L20.13 16.5849L19.9163 22.7687V22.9299L22.41 25.4724L19.8675 27.9999L17.2237 25.3112Z" fill="#909F44"/>
</svg>
