<svg width="60" height="60" viewBox="0 0 60 60" fill="none" xmlns="http://www.w3.org/2000/svg">
<g clip-path="url(#clip0_164_3717)">
<path d="M20 21C20 18.2 22.2 16 25 16H26.3L29.1 23.4C29.2 23.7 29.6 24 30 24C30.4 24 30.8 23.7 31.1 23.4L33.9 16H35C37.8 16 40 18.2 40 21V31H42V21C42 17.1 38.9 14 35 14H25C21.1 14 18 17.1 18 21V31H20V21ZM30.1 20.2L28.5 16H31.7L30.1 20.2Z" fill="#67AA0B"/>
<path d="M31 25H29V27H31V25Z" fill="#67AA0B"/>
<path d="M31 29H29V31H31V29Z" fill="#67AA0B"/>
<path d="M29 13H31C33.8 13 36 10.8 36 8V5C36 2.2 33.8 0 31 0H29C26.2 0 24 2.2 24 5V8C24 10.8 26.2 13 29 13ZM26 5C26 3.3 27.3 2 29 2H31C32.7 2 34 3.3 34 5V8C34 9.7 32.7 11 31 11H29C27.3 11 26 9.7 26 8V5Z" fill="#67AA0B"/>
<path d="M25 24H23V31H25V24Z" fill="#67AA0B"/>
<path d="M37 24H35V31H37V24Z" fill="#67AA0B"/>
<path d="M17 50H7C3.1 50 0 53.1 0 57V60H2V57C2 54.2 4.2 52 7 52H8.3L11.1 59.4C11.2 59.7 11.6 60 12 60C12.4 60 12.8 59.7 13.1 59.4L15.9 52H17C19.8 52 22 54.2 22 57V60H24V57C24 53.1 20.9 50 17 50ZM12.1 56.2L10.5 52H13.7L12.1 56.2Z" fill="#67AA0B"/>
<path d="M11 49H13C15.8 49 18 46.8 18 44V41C18 38.2 15.8 36 13 36H11C8.2 36 6 38.2 6 41V44C6 46.8 8.2 49 11 49ZM8 41C8 39.3 9.3 38 11 38H13C14.7 38 16 39.3 16 41V44C16 45.7 14.7 47 13 47H11C9.3 47 8 45.7 8 44V41Z" fill="#67AA0B"/>
<path d="M53 50H43C39.1 50 36 53.1 36 57V60H38V57C38 54.2 40.2 52 43 52H44.3L47.1 59.4C47.2 59.7 47.6 60 48 60C48.4 60 48.8 59.7 49.1 59.4L51.9 52H53C55.8 52 58 54.2 58 57V60H60V57C60 53.1 56.9 50 53 50ZM48.1 56.2L46.5 52H49.7L48.1 56.2Z" fill="#67AA0B"/>
<path d="M42 44C42 46.8 44.2 49 47 49H49C51.8 49 54 46.8 54 44V41C54 38.2 51.8 36 49 36H47C44.2 36 42 38.2 42 41V44ZM44 41C44 39.3 45.3 38 47 38H49C50.7 38 52 39.3 52 41V44C52 45.7 50.7 47 49 47H47C45.3 47 44 45.7 44 44V41Z" fill="#67AA0B"/>
<path d="M20 45H40V43H31V34H29V43H20V45Z" fill="#909F44"/>
</g>
<defs>
<clipPath id="clip0_164_3717">
<rect width="60" height="60" fill="white"/>
</clipPath>
</defs>
</svg>
