<svg width="60" height="60" viewBox="0 0 60 60" fill="none" xmlns="http://www.w3.org/2000/svg">
<g clip-path="url(#clip0_164_3521)">
<path fill-rule="evenodd" clip-rule="evenodd" d="M48.8205 36.9952C51.9629 36.9952 54.4908 35.8022 55.7631 34.7928C56.4673 34.2316 56.5603 33.2363 55.9723 32.5552C55.3844 31.8881 54.3447 31.7999 53.6438 32.3469C53.4577 32.4916 49.1959 35.6858 43.5156 32.234C35.9352 27.6175 27.654 32.0116 27.3019 32.1952C27.2388 32.2269 20.4557 35.7705 14.3303 32.2199C6.32141 27.5611 0.680988 32.1811 0.448463 32.3858C-0.235828 32.9646 -0.305588 33.9634 0.302303 34.6234C0.920158 35.2869 1.96985 35.3399 2.65082 34.7611C2.79698 34.6375 6.72334 31.5175 12.6029 34.9305C20.4158 39.4622 28.5941 35.1422 28.9395 34.9587C29.0093 34.9163 35.8489 31.3199 41.7351 34.9128C44.2464 36.4446 46.6779 36.9952 48.8205 36.9952Z" fill="#67AA0B"/>
<path fill-rule="evenodd" clip-rule="evenodd" d="M48.794 47.626C52.8466 47.626 55.534 45.6283 55.7001 45.4942C56.4342 44.9365 56.5803 43.8883 56.0223 43.1577C55.4642 42.4201 54.4311 42.2824 53.7037 42.826C53.501 42.9742 49.1893 46.0695 43.4592 42.7165C35.932 38.3189 27.7106 42.4977 27.3618 42.6777C27.2987 42.7095 20.4525 46.1507 14.2739 42.7024C6.3182 38.2624 0.744221 42.6707 0.508373 42.8612C-0.205814 43.4436 -0.318756 44.4954 0.255917 45.2118C0.830585 45.9354 1.87695 46.0412 2.59446 45.466C2.74726 45.346 6.72678 42.3177 12.6628 45.6248C20.4093 49.9483 28.5377 45.8295 28.8898 45.6495C28.9529 45.6177 35.8523 42.1271 41.7884 45.6107C44.3694 47.1177 46.7545 47.626 48.794 47.626Z" fill="#67AA0B"/>
<path fill-rule="evenodd" clip-rule="evenodd" d="M20.4092 58.1858C25.0896 58.1893 28.7137 56.2552 28.9395 56.1246C29.0093 56.0893 35.8489 52.4646 41.7285 56.0858C47.9502 59.9046 53.6338 57.6811 55.7631 55.9658C56.4673 55.4011 56.5603 54.3952 55.9723 53.7105C55.3844 53.0399 54.3447 52.9376 53.6438 53.5023C53.4577 53.647 49.1959 56.8693 43.5156 53.3858C35.9352 48.727 27.654 53.1564 27.3019 53.347C27.2355 53.3787 20.4523 56.954 14.3303 53.3717C6.32141 48.674 0.680988 53.3399 0.448463 53.534C-0.235828 54.1234 -0.305588 55.1328 0.302303 55.7964C0.920158 56.4599 1.96985 56.5164 2.65082 55.9376C2.79698 55.807 6.72334 52.6693 12.6029 56.1034C15.2737 57.6705 17.9842 58.1858 20.4092 58.1858Z" fill="#67AA0B"/>
<path fill-rule="evenodd" clip-rule="evenodd" d="M23.6116 19.3125H43.5351C44.5092 19.3125 45.2998 18.5714 45.2998 17.6572C45.2998 16.7431 44.5092 16.002 43.5351 16.002H23.6116C22.6375 16.002 21.8469 16.7431 21.8469 17.6572C21.8469 18.5714 22.6375 19.3125 23.6116 19.3125Z" fill="#909F44"/>
<path fill-rule="evenodd" clip-rule="evenodd" d="M23.6116 26.4703H43.5351C44.5092 26.4703 45.2998 25.6797 45.2998 24.7056C45.2998 23.7315 44.5092 22.9409 43.5351 22.9409H23.6116C22.6375 22.9409 21.8469 23.7315 21.8469 24.7056C21.8469 25.6797 22.6375 26.4703 23.6116 26.4703Z" fill="#909F44"/>
<path fill-rule="evenodd" clip-rule="evenodd" d="M44.1704 36.0283C45.1446 36.0283 45.7728 35.2377 45.7728 34.2636V9.81537C45.8893 9.64596 47.1104 8.60125 48.9069 8.60125H49.7928C51.5928 8.60125 52.6516 9.64595 52.7893 9.91772C52.7893 10.8918 53.5693 11.6295 54.5434 11.6295C55.5175 11.6295 56.301 10.7895 56.301 9.81184C56.301 7.32713 53.5022 5.45654 49.7928 5.45654H48.9069C45.201 5.45654 42.4057 7.32713 42.4057 9.81184V34.2601C42.4057 35.2377 43.1928 36.0283 44.1704 36.0283Z" fill="#909F44"/>
<path fill-rule="evenodd" clip-rule="evenodd" d="M22.9412 36.1022C23.9153 36.1022 24.7059 35.3116 24.7059 34.3375V9.69867C24.8224 9.52926 25.6094 8.60102 27.4094 8.60102H28.2988C30.0953 8.60102 31.4259 9.52926 31.5635 9.80102C31.5635 10.7751 32.3435 11.5128 33.3177 11.5128C34.2953 11.5128 35.0718 10.6728 35.0718 9.69514C35.0718 7.21043 32.2765 5.33984 28.5671 5.33984H27.6812C23.9718 5.33984 21.1765 7.21043 21.1765 9.69514V34.334C21.1765 35.3151 21.9671 36.1022 22.9412 36.1022Z" fill="#909F44"/>
</g>
<defs>
<clipPath id="clip0_164_3521">
<rect width="60" height="60" fill="white" transform="matrix(-1 0 0 1 60 0)"/>
</clipPath>
</defs>
</svg>
